<svg xmlns="http://www.w3.org/2000/svg" xmlns:xlink="http://www.w3.org/1999/xlink" id="visual" width="900" height="600" version="1.1" viewBox="0 0 900 600"><rect width="900" height="600" x="0" y="0" fill="#000"/><defs><linearGradient id="grad1_0" x1="33.3%" x2="100%" y1="0%" y2="100%"><stop offset="20%" stop-color="#000" stop-opacity="1"/><stop offset="80%" stop-color="#000" stop-opacity="1"/></linearGradient></defs><defs><linearGradient id="grad2_0" x1="0%" x2="66.7%" y1="0%" y2="100%"><stop offset="20%" stop-color="#000" stop-opacity="1"/><stop offset="80%" stop-color="#000" stop-opacity="1"/></linearGradient></defs><g><path fill="#f9224b" d="M0 378.6C-85 379.5 -170 380.5 -189.3 327.9C-208.6 275.2 -162.1 169.1 -182.7 105.5C-203.3 41.9 -291 21 -378.6 0L0 0Z" transform="translate(900, 0)"/></g><g><path fill="#f9224b" d="M0 -378.6C72.8 -372.5 145.5 -366.3 189.3 -327.9C233.1 -289.4 247.8 -218.5 274.5 -158.5C301.2 -98.5 339.9 -49.2 378.6 0L0 0Z" transform="translate(0, 600)"/></g></svg>