<svg xmlns="http://www.w3.org/2000/svg" xmlns:xlink="http://www.w3.org/1999/xlink" id="visual" width="900" height="600" version="1.1" viewBox="0 0 900 600"><g><g><path fill="#12121a" d="M0 -114.9L99.5 -57.5L99.5 57.5L0 114.9L-99.5 57.5L-99.5 -57.5Z" transform="translate(280 574)"/></g><g><path fill="#12121a" d="M0 -34L29.4 -17L29.4 17L0 34L-29.4 17L-29.4 -17Z" transform="translate(3 354)"/></g><g><path fill="#12121a" d="M0 -33L28.6 -16.5L28.6 16.5L0 33L-28.6 16.5L-28.6 -16.5Z" transform="translate(365 91)"/></g><g><path fill="#12121a" d="M0 -17L14.7 -8.5L14.7 8.5L0 17L-14.7 8.5L-14.7 -8.5Z" transform="translate(654 342)"/></g><g><path fill="#12121a" d="M0 -89L77.1 -44.5L77.1 44.5L0 89L-77.1 44.5L-77.1 -44.5Z" transform="translate(355 323)"/></g><g><path fill="#12121a" d="M0 -40L34.6 -20L34.6 20L0 40L-34.6 20L-34.6 -20Z" transform="translate(603 58)"/></g><g><path fill="#12121a" d="M0 -26L22.5 -13L22.5 13L0 26L-22.5 13L-22.5 -13Z" transform="translate(896 252)"/></g></g></svg>